<svg width="56" height="56" viewBox="0 0 56 56" fill="none" xmlns="http://www.w3.org/2000/svg">
<rect x="4.62671" y="4.53345" width="46.8805" height="46.8805" rx="23.4402" fill="#E81E1E" fill-opacity="0.25"/>
<rect x="4.62671" y="4.53345" width="46.8805" height="46.8805" rx="23.4402" stroke="#E81E1E" stroke-opacity="0.1" stroke-width="7.81341"/>
<path d="M28.0964 23.0683L28.0679 28.0683M24.0851 25.045C23.4524 25.8772 23.0744 26.9139 23.068 28.0398C23.0523 30.8011 25.278 33.0524 28.0394 33.0682C30.8008 33.0839 33.0521 30.8582 33.0678 28.0968C33.0743 26.971 32.7081 25.9299 32.085 25.0906M37.0678 28.1196C37.0394 33.0901 32.9871 37.0965 28.0166 37.0681C23.0461 37.0398 19.0397 32.9874 19.0681 28.0169C19.0964 23.0465 23.1488 19.0401 28.1192 19.0684C33.0897 19.0968 37.0961 23.1491 37.0678 28.1196Z" stroke="#E81E1E" stroke-width="2" stroke-linecap="round" stroke-linejoin="round"/>
</svg>
