<svg width="25" height="25" viewBox="0 0 25 25" fill="none" xmlns="http://www.w3.org/2000/svg">
<path d="M2.5 13.2668H8.29999C9.82999 13.2668 10.88 14.4268 10.88 15.8468V19.0668C10.88 20.4868 9.82999 21.6468 8.29999 21.6468H5.08002C3.66002 21.6468 2.5 20.4868 2.5 19.0668V13.2668Z" stroke="#1E1E1E" stroke-opacity="0.5" stroke-width="1.5" stroke-linecap="round" stroke-linejoin="round"/>
<path d="M2.5 13.2667C2.5 7.21673 3.63003 6.21678 7.03003 4.19678" stroke="#1E1E1E" stroke-opacity="0.5" stroke-width="1.5" stroke-linecap="round" stroke-linejoin="round"/>
<path d="M14.1299 13.2668H19.9299C21.4599 13.2668 22.5099 14.4268 22.5099 15.8468V19.0668C22.5099 20.4868 21.4599 21.6468 19.9299 21.6468H16.7099C15.2899 21.6468 14.1299 20.4868 14.1299 19.0668V13.2668Z" stroke="#1E1E1E" stroke-opacity="0.5" stroke-width="1.5" stroke-linecap="round" stroke-linejoin="round"/>
<path d="M14.1299 13.2667C14.1299 7.21673 15.2599 6.21678 18.6599 4.19678" stroke="#1E1E1E" stroke-opacity="0.5" stroke-width="1.5" stroke-linecap="round" stroke-linejoin="round"/>
</svg>
